<mxfile host="www.draw.io" modified="2019-11-14T10:12:09.778Z" agent="Mozilla/5.0 (X11; Ubuntu; Linux x86_64; rv:70.0) Gecko/20100101 Firefox/70.0" etag="HdRGDERr6UYlA931Ik27" version="12.2.6" type="github" pages="1">
  <diagram id="yJD1u6mJXy526t3j1lol" name="Page-1">
    <mxGraphModel dx="1408" dy="753" grid="1" gridSize="10" guides="1" tooltips="1" connect="1" arrows="1" fold="1" page="1" pageScale="1" pageWidth="1169" pageHeight="827" math="0" shadow="0">
      <root>
        <mxCell id="0"/>
        <mxCell id="1" parent="0"/>
        <mxCell id="k94eyKAQCkePa_4UFT7v-4" value="" style="whiteSpace=wrap;html=1;aspect=fixed;strokeWidth=5;" vertex="1" parent="1">
          <mxGeometry x="40" y="165" width="466" height="466" as="geometry"/>
        </mxCell>
        <mxCell id="k94eyKAQCkePa_4UFT7v-20" value="" style="shape=image;html=1;verticalAlign=top;verticalLabelPosition=bottom;labelBackgroundColor=#ffffff;imageAspect=0;aspect=fixed;image=https://cdn4.iconfinder.com/data/icons/hodgepodge-free/32/barcode_bar_code_clean-128.png;strokeWidth=5;fillColor=#ffffff;fontColor=#000000;" vertex="1" parent="1">
          <mxGeometry x="60" y="272" width="60" height="60" as="geometry"/>
        </mxCell>
        <mxCell id="k94eyKAQCkePa_4UFT7v-9" value="" style="endArrow=none;html=1;strokeWidth=5;entryX=0.502;entryY=0.498;entryDx=0;entryDy=0;entryPerimeter=0;exitX=1;exitY=0.5;exitDx=0;exitDy=0;" edge="1" parent="1" source="k94eyKAQCkePa_4UFT7v-4" target="k94eyKAQCkePa_4UFT7v-4">
          <mxGeometry width="50" height="50" relative="1" as="geometry">
            <mxPoint x="660" y="401" as="sourcePoint"/>
            <mxPoint x="580" y="330" as="targetPoint"/>
          </mxGeometry>
        </mxCell>
        <mxCell id="k94eyKAQCkePa_4UFT7v-10" value="" style="endArrow=none;html=1;strokeWidth=5;entryX=0;entryY=0;entryDx=0;entryDy=0;entryPerimeter=0;" edge="1" parent="1" target="k94eyKAQCkePa_4UFT7v-4">
          <mxGeometry width="50" height="50" relative="1" as="geometry">
            <mxPoint x="276" y="400" as="sourcePoint"/>
            <mxPoint x="109.93200000000002" y="460.068" as="targetPoint"/>
          </mxGeometry>
        </mxCell>
        <mxCell id="k94eyKAQCkePa_4UFT7v-11" value="" style="endArrow=none;html=1;strokeWidth=5;exitX=0.002;exitY=1.002;exitDx=0;exitDy=0;exitPerimeter=0;" edge="1" parent="1" source="k94eyKAQCkePa_4UFT7v-4">
          <mxGeometry width="50" height="50" relative="1" as="geometry">
            <mxPoint x="286" y="410" as="sourcePoint"/>
            <mxPoint x="272" y="399" as="targetPoint"/>
          </mxGeometry>
        </mxCell>
        <mxCell id="k94eyKAQCkePa_4UFT7v-14" value="" style="group" vertex="1" connectable="0" parent="1">
          <mxGeometry x="230" y="340" width="84" height="84" as="geometry"/>
        </mxCell>
        <mxCell id="k94eyKAQCkePa_4UFT7v-13" value="" style="rounded=0;whiteSpace=wrap;html=1;labelBackgroundColor=#ffffff;strokeWidth=5;fontColor=#000000;fillColor=#ffffff;strokeColor=none;" vertex="1" parent="k94eyKAQCkePa_4UFT7v-14">
          <mxGeometry x="4" y="20" width="72" height="64" as="geometry"/>
        </mxCell>
        <mxCell id="k94eyKAQCkePa_4UFT7v-2" value="" style="shape=image;html=1;verticalAlign=top;verticalLabelPosition=bottom;labelBackgroundColor=#ffffff;imageAspect=0;aspect=fixed;image=https://cdn2.iconfinder.com/data/icons/ios-7-icons/50/gift-128.png;imageBackground=none;" vertex="1" parent="k94eyKAQCkePa_4UFT7v-14">
          <mxGeometry width="84" height="84" as="geometry"/>
        </mxCell>
        <mxCell id="k94eyKAQCkePa_4UFT7v-16" value="" style="endArrow=none;html=1;strokeWidth=5;endFill=0;startArrow=block;startFill=1;" edge="1" parent="1" target="k94eyKAQCkePa_4UFT7v-4">
          <mxGeometry width="50" height="50" relative="1" as="geometry">
            <mxPoint x="580" y="400" as="sourcePoint"/>
            <mxPoint x="600" y="401" as="targetPoint"/>
          </mxGeometry>
        </mxCell>
        <mxCell id="k94eyKAQCkePa_4UFT7v-21" value="Produit" style="text;html=1;strokeColor=none;fillColor=none;align=center;verticalAlign=middle;whiteSpace=wrap;rounded=0;labelBackgroundColor=#ffffff;fontColor=#000000;fontSize=20;fontStyle=2" vertex="1" parent="1">
          <mxGeometry x="50" y="324" width="130" height="30" as="geometry"/>
        </mxCell>
        <mxCell id="k94eyKAQCkePa_4UFT7v-3" value="" style="ellipse;whiteSpace=wrap;html=1;aspect=fixed;strokeWidth=5;" vertex="1" parent="1">
          <mxGeometry x="650" y="160" width="480" height="480" as="geometry"/>
        </mxCell>
        <mxCell id="k94eyKAQCkePa_4UFT7v-5" value="" style="endArrow=none;html=1;entryX=0.5;entryY=0.5;entryDx=0;entryDy=0;entryPerimeter=0;exitX=0;exitY=0.5;exitDx=0;exitDy=0;strokeWidth=5;" edge="1" parent="1" source="k94eyKAQCkePa_4UFT7v-3" target="k94eyKAQCkePa_4UFT7v-3">
          <mxGeometry width="50" height="50" relative="1" as="geometry">
            <mxPoint x="600" y="407" as="sourcePoint"/>
            <mxPoint x="812" y="407" as="targetPoint"/>
          </mxGeometry>
        </mxCell>
        <mxCell id="k94eyKAQCkePa_4UFT7v-6" value="" style="endArrow=none;html=1;exitX=1;exitY=1;exitDx=0;exitDy=0;entryX=0.504;entryY=0.502;entryDx=0;entryDy=0;entryPerimeter=0;strokeWidth=5;" edge="1" parent="1" source="k94eyKAQCkePa_4UFT7v-3" target="k94eyKAQCkePa_4UFT7v-3">
          <mxGeometry width="50" height="50" relative="1" as="geometry">
            <mxPoint x="660" y="410" as="sourcePoint"/>
            <mxPoint x="889" y="404" as="targetPoint"/>
          </mxGeometry>
        </mxCell>
        <mxCell id="k94eyKAQCkePa_4UFT7v-7" value="" style="endArrow=none;html=1;exitX=1;exitY=0;exitDx=0;exitDy=0;entryX=0.502;entryY=0.496;entryDx=0;entryDy=0;entryPerimeter=0;strokeWidth=5;" edge="1" parent="1" source="k94eyKAQCkePa_4UFT7v-1" target="k94eyKAQCkePa_4UFT7v-3">
          <mxGeometry width="50" height="50" relative="1" as="geometry">
            <mxPoint x="1069.7056274847714" y="579.7056274847714" as="sourcePoint"/>
            <mxPoint x="901.9200000000001" y="410.96000000000004" as="targetPoint"/>
          </mxGeometry>
        </mxCell>
        <mxCell id="k94eyKAQCkePa_4UFT7v-8" value="" style="endArrow=none;html=1;exitX=1;exitY=0;exitDx=0;exitDy=0;entryX=0.502;entryY=0.496;entryDx=0;entryDy=0;entryPerimeter=0;strokeWidth=5;" edge="1" parent="1" source="k94eyKAQCkePa_4UFT7v-3" target="k94eyKAQCkePa_4UFT7v-1">
          <mxGeometry width="50" height="50" relative="1" as="geometry">
            <mxPoint x="1059.7056274847714" y="230.2943725152286" as="sourcePoint"/>
            <mxPoint x="890.96" y="398.0799999999999" as="targetPoint"/>
          </mxGeometry>
        </mxCell>
        <mxCell id="k94eyKAQCkePa_4UFT7v-1" value="" style="shape=image;verticalLabelPosition=bottom;labelBackgroundColor=#ffffff;verticalAlign=top;aspect=fixed;imageAspect=0;image=data:image/png,iVBORw0KGgoAAAANSUhEUgAAAVQAAAFHCAYAAAD+0LSAAAAgAElEQVR4nOzdd3hUxf7H8bOb3iAkIYHQISC9CUgHARUEKYJc7IiCoIJURYELKCAiIlcUpUhRKQJCRLo0f1Sp0ksgEAJJSCN1k93sOe/fHxgeG9ndJLubhO/reeaP+4fh5uzOJzNnZr6jKELYEVANeBToB7wKjAH1A1D/B+py0MJB2w3aIdBOgnYBtEjQYkBLAi0TNEBD09RMTVOTNE2N0TQ1UtPUC5qmntQ08yFNM+/WNHO4qqrLVVX9n6qqH4A6+o9/sx/QEajm7OchhBB5AnyBlsDLoM4A7UfQzoKWnRuG/9Y0TUVVzeTkmDAas8nOziIry4DBkElmZgbp6Wmkp6eRlpZKamoKycnJJCUlkpiYQHz8bW7fjuP27VhiY2OIjY3543/HER9/m4SEBJKTk0hJuUNqagppaamkp6eRkZGenZGRccZgyFyXlZU53WQyvWQymR4BfJ39HIUQDwhAD1QFugIjQf0KtD2gxeYVmJqmYjbnYDIZycoykJGRTmpqCnfuJJOQEM/Nm9FcvnyZ06dPcfToEfbv38euXTvZtm0rGzf+xPr161izZjXff/8dixcvZv78+cyb9zmfffYZs2d/wscfz2T69Gl89NEMZs36mNmzP2HOnE+ZN28eCxYsYPnyZaxatZK1a9ewYcN6Nm/exC+/7GDv3t0cPHiAkydPcOHCeSIjrxITEx2bmJiwJyUl+auMjNS3MzIyumZlZVUFdM5+/kKIYgjwBpoBL4A6DbS1oJ2xZrT5b+GZnJzM9evXOXHiBLt27WL16tXMmzePDz6YytixY3n99SEMGDCAbt260a5dW5o0aUKtWrWoXLkyZcuWxc/PD3d3d3Q6HYqi5KvpdDrc3d0pXbo05cuXp0aN6tSrV5fmzZvRpUsX+vTpw0svvcSbb77B+++/z+zZs1myZAnh4RvYu3cvp079brh9+/bv6enpP2RmZk41Gg3PgqkJ4OWMz0gIUcQB5YDnQF0EWkRe4Xm/QE1PT+PMmdOsW7eWqVOn0KNHd+rXr0e1atWoWLEiISEh+Pv74+Pjjbu7Oy4uLri4uKDX6+81nU53ryn5DFBL7c//Ru6/m/v/xc3NDS8vL0qVKkVgYCAhISFUqlSJWrVq8fjjjzNs2FBmz57Ntm1bI6KiohYajcbngHKO/KyEEEUMUBbo/8fU/YKtAQoat2/HsXv3LmbMmE737k9So0Z1QkKCCQgIwM/PDw8PD1xdXf4RloqdgrIw299D18XFBQ8PD7y9ve+FbeXKlWjXri1vvDGMBQsWXDh27Mj8lJSU/kBZu31wQgjn+2PhqDuos0E7AZpqKTBV1Ux2djZpaakkJMQTEXGZH35YzXvvjeepp3rQpEljqlevTnBwMN7eXsUmLAur6XQ6PDzc8ff3JzQ0lFq1atGuXVvefPMN9auv5p/Yt2/f7Ojo6CdlwUuIYu6Pd6Gd/ngPehC0HGtGnWZzDmlpqdy8Gc2pU7+zfv16ZsyYzsCBL9O+fTtq165NuXIheHk9eAFqTXNzcyMwMJDq1avRuHFjunXryjvvjM1Zvnz5wQMHDky7cuVKJ8CzYJ+uEMIhAE/gWdA2Wxui2dlZnD9/jh9/XMesWbMYOfJtXnzxBbp168rDDzelWrWq+Pv7o9frnR5Yxa25u7tTvnx5GjRoQMeOHejTp0/Oq6++umnChAn/Wbp0qQSrEEXNH1uaOoG6BLRUaxaQzOYcrlyJYMOGDUyb9iHPP/8crVq1onr16gQGBuLj44Orq6vTA6kktbuvCDwoVaoUoaGhNGnSJLV3797fvPXWWx1la5YQTgbU+mNKf93alfiMjHQOHNjPp5/O5rXXXqVNmzaUK1cOT09PGYE6IWBdXV3x8fEhLCzses+eT30wY8aMWlZ+/EKIggLKAG+BdtS6RaUskpISOXv2DBs3/sSnn35Knz69CQgIkAAtgs3f35/27dsdGT169JsrVqwok/e3QQhhM8AV6PXHkU6jpVGowZBJbOwtfv/9JJs3b2LevM8ZPHgwTZs2wcfHx+mhIc26Fhpa3titW7d1U6dOfWrPnj2u9/t+CCGs8MdK/TDQLlsznb9zJ5mLFy+wffs25s6dwyuvvEzTpk3w9y/t9HCQlv/m6+tLnTq1L/Xo0WPolClDvP/lqyKEuB8g9I8iI0nWBGlmZgbXrkXy3Xff8sILL9C4cWPKlQvBw8PD6WFgS9PpdLi5ud3bPB8QEEDZsmUpV64coaGhVKpUiSpVqlC1alWqVatG9erVqVGjBmFhYYSFhVGjRg2qV69O9erVqVq1KpUrV6ZixYqEhoYSEhJCUFAQ/v7++Pn54eXlhZubW7Ha+qXT6fDx8UkKC6sx/ZlnnpHDA0LkBagL6regmaw5M5+RkU5MzC22bNlM//79KVu2LC4uLk7v+P/Wck8dubq64unpia+vL6VLlyYwMJDg4GAqVKhAWFgYLVu2pFevXgwaNIgxY8YwdepU5syZw6JFi1i9ejUbN25k27Zt7Ny5k71797J//35+++03Dh06xIEDB/j111/ZtWsXW7ZsYd26dXz33XcsWLCA2bNnM3HiRN544w2effZZunXrRrNmzahSpQrlypWjbNmyBAQEUKpUKby97x6NLcqnu/R6XZa3t/eisLCwuvn+wglREgFh3C1ColkK0tyFpmvXrrFgwVe0aNHC6Z3731ruaNPLyws/Pz/KlClDcHAwjRo1ok+fPowZM4YvvviCTZs2cebMGe7cuYOmaWiahiOlp6cTGRnJwYMH+eGHH5gxYwavvPIK7du3p1q1avdGtT4+PvdC1tnP9m9NUxRlTYUKFWR3gHiwAeVBXWjNBnxNU8nOzuLGjSjWrFlD9+7d8fb2LjId3MXFBW9vb/z9/QkODqZGjRo8+eSTjBo1ioULF7Jnzx4iIyNJSUnBYDCQnZ2N0WgkJycHs9l8L0wdHaiapqGqKmazGZPJhNFoJCsri8zMTJKTkzl79izh4eFMnz6d/v3707hxYypVqkRQUBB+fn64ubk5/dn/0XLc3NwWNGnSJLSAX0shihcgCNSPQTNY3vqUQ1TUNTZu/ImJEyfw2GNdqFChAp6enk7twH5+ftSqVYsOHTrw3HPP8f777/PVV18RHh7OoUOHiIiIIC4ujqSkJNLT08nOzr4XnMWFpmmYTCYMBgMpKSnEx8dz8+ZNzp07x+7du/nuu++YPn06Q4cOpVevXjRv3pzy5cs79Y+cq6uroXTp0jMbNGggW65EyQb4gjoVtHRrNuKnp6fz/fff88wz/ahbty7BwcFOPUNfqVIl+vfvz+zZs9mwYQP79u3j5MmTREREEBMTQ3Jy8r3wVFXVaUFoT5qmkZOT85eQjYqK4vz58xw5coTt27czf/58hg0bRrt27Zx2ZFev1yf7+fm9W7FiRanZKkoeYABoN6wtUPLLLzt4441hNGzYkFKlSjllscnX15cWLVowcuRIli1bxu7duzl79ixxcXH3gjMnJwdVVYvVyLOwaZp275WBwWAgISGBiIgIjh49ypYtW5g8eTJdunQhMDDQ4X8MdTrdDS8vr/6F+FUWwnmARqDttW77UybHjx9j4sQJtG/f3qGnmfR6PW5ubvj7+9OwYUNefPFFPv30U3bu3ElERAQZGRkPdGjml9ls5saNG+zfv5/vvvuO9957jyeffJKqVavi4eHhyNHrXkVRGhXql1sIRwECQF2AhbqjqmomMzODixcvsHDhAvr2fZrg4GCHdDS9Xo+fnx8VKlSgbdu2DB48mE8++YT169dz4sQJEhMTJUQLkdFo5MaNG/z6668sWrSIESNG0LlzZ8LCwggKCnLEvmFVUZSvFUUJKOzvuxB2wd1jom9a2pSvqmYSExPYt+//+OKLeQwbNoz69evZvcKTTqejTJkytGnThmeffZbRo0cza9YsNmzYwLlz50hLS3Ne4jwgNE3DYDBw5coVtm7dyoIFC5gyZQpDhgyhffv2hIaG2vt7kKQoyjBFUfSF3wOEKCRAA2uKlphMRi5evMiCBV/zzDPPUKVKZby8vOwapK6urpQrV462bdsyYsQI1q1bx5kzZ4iJiSE9PR2z2ey8hHmA5S5yJScnc/XqVcLDw/nvf/9Lnz59aNCgAaVLl7bnbOWooigN7NEXhMg3wAPU6XmdcMptBkMmJ04cZ/z48Tz00EN2D1IfHx9q1qxJjx49mDBhAps2bSI2NpasrCyZzhcxmqaRnZ1NSkoKZ8+eZcmSJQwePJgmTZrg5+dnr++ISVGUDxVF8bBD1xDCNkA7S8VLNE3FaMzm1q2bbNu2lZdffomyZYPs0kF0Oh0uLi74+PhQrVo1evXqxfz587l69aoTo0Lkh6ZppKSk8MMPPzBgwADq1atH2bJlC3yt9n3aZUVR2tmrnwiRJ6D0H4tOeR4XVVUzqampnDhxnMmTJ1OnTm1cXOwzhXNzcyMgIICHHnqIp556iq+++opr167JdL4ESEpKYseOHYwaNYoWLVoQEnK3+E0hB6um3F208rFXvxHiH4DWoN20NCo1mYzExNwiPDycxx7rgq+vr92CtEyZMjRt2pTBgwezevVqbt68WWI31z/IDAYDR48eZdy4cbRt25bQ0FB8fHwKe5/yTUVRWtutAwmhKIoCuP3xrtRsqYhJdnYWhw8fonfvXgQFBdllYSH3jqLHHnuMZcuWERkZidFodGZ/Fw6QeyQ2Li6OgwcPMmnSJGrXro27u3thfr/MiqJMUxTFzW4dSjy4gDrcvc8eS9uhYmJu8eGHH1KhQiienp52OR1TpkwZnn32Wfbs2UNsbCwZGRnF7qy8yJ/cIjKqqmIymUhNTeXs2bO8//77VK1atbD/eJ9QFKWO/XqWeKAAOuBt0LIshWl2toEDB/bTs2dPAgMD7TIq9fDw4OGHH+bLL7/k5s2bZGVl3Tv6KWH64Mn93E0mE4mJiWzcuJFevXpRunSh3tKQpSjKcEVR5GZWkX9ABdB2WnNsNC0tle3bt9G7d69Cv7cpd9W+QYMGjBkzhr1798opJvGv0tPTuXTpEsuXL6dv376UK1euMN+v7lQUpYI9+5wooYAWoMVaCtP09DR+++03Zs78iM6dO1GqVKlCDdOQkBB69OjB9OnT2bx5M5GRkWRlZTmvx4oiT9M07ty5w7Fjx5g/fz4DBgygVq1ahTVjilUUpYVdO58oWYDhWLhdFDRu3Ihi6dKlDBjwH2rWDCvUGqXu7u40a9aMCRMm8MsvvxAdHS1BKmxiNpuJj4/n4MGDfP3117z00ktUrly5ML6fRkVR3rRvLxTFHuDH3atIsDTFv307js8+m0OrVi0pVapUoS481apVi7feeovVq1dz+fJlDAaDTO9FvuS+X01ISODYsWN8/vnndO/evbBO6K1VFMXPvr1SFEvcPYdv8bpmszmH69evMW/e5zz88MOFtlUlt2jJ448/zpdffsmVK1cwGAyyl1QUityarSkpKezZs4fnn3+e0NDQwrjC5bIi9QDEnwEDyfM6krt7S9PT0/j995N88MFU6tSpUyj3Cel0Ory9vQkLC+O1115j7969cs5e2E3udquTJ0/y3//+l44dO1K+fPmCDgwMiqIMtHtHFUUfMNLS8VGz2URs7C02bfqZV18dRNmyZQtliu/p6UnlypV5/PHHmT59OhEREbL9SThMRkYGW7ZsYcSIETz88MMFXVDVFEUZaf8eK4okQAfqZ5belebkmLh5M5q5c+fQunXrQpni63Q6AgICaN++PZMmTWLv3r1Sh1Q4TXR0NEuWLKFXr16FUYv1M0X2qz5YAA/Q1ljzvvTWrZvMmzev0O4D0ul0BAYG8sorr7B//37S09Od15OE+IPRaOTMmTNMmTKFBg0aFHTHyhpFygE+GIDSWLjj6e40P4eYmFt88cW8QttbqtfrKVOmDMOGDeP06dNO7D5C/Duj0ciuXbvo1q1bQWdjexVFKW3v/iycCKgI2llrRqYREZeZMOF9vL0LpwC0q6srdevWZeHChcTHx8t7UlEk5e4GOHfuHG+99VZBC1ufVRSlot07tnA8oLI126Kysgz83//9ygsvPI+vb+EcIQ0ICGDQoEEcOHCA9PR02QolijRN0zAajVy5coWPP/6Y6tWrF+T7f1FRlCp27+DCcbgbplGWwjQl5Q4//PAD3bp1K5TiEi4uLrRp04YlS5YQEREh26FEsZF719Xt27fZtWsXEyZMoEKFCvk9vnpdkVAtGYCa1oRpdnYWa9eu4YknniiUMPX09KRfv37s3LmThIQEcnJyJExFsaOqKgaDgWvXrrFs2TKaNWuW3+uuryuK8pADurywF+6G6W1LYWoyGVm5cgWdO3cu8DFSnU5HSEgIY8aM4eTJk2RmZt4rrydEcZT7XjU5OZkff/yR5s2b53fBKk6RUC2egIaWw1QlNTWV7777lo4dOxS47J67uzsNGjRg5syZXLp0yXk9QAg7SUtLY/HixXTo0CG/g484RVEaOyYFRKEAmoKWZGlkmpp6h9WrV9O+fXu8vb0LPMVv0qQJs2bNIiYmRkakosSKj4/nhx9+oF+/fvk9CJCkyC0AxQNQ21KY5p7L//bb5XTq1KnAd56XK1eOnj17Mn/+fCIjIyVMRYmXnp7O7t27mTBhAq1atcrPgCRGkVAt2rgbpnkWhdY0FYMhk7Vr19CsWbMCnQjR6/XUqFGD4cOHs2fPHlJTU534FRfCsVRVJTY2lm+++Ya2bdvmZ7FKQrWowoowVVUzaWmpbN26hcaNGxeoWpRerycsLIypU6dy6dIlzGazE7/aQjiHpmnExsayePFiHnnkkfz0KQnVogarwvTuvU87dmynYcMGBVrJ1+v1hISE8MEHH3Dt2jWZ4osHXkJCAsuWLaNJkyb5HalWc1BciLwAVa2Z5qelpfHLL7/Qrl3bAr0vdXFxITQ0lEGDBnH8+HEZmQrxh9TUVMLDw2nRokV+dgBEKhKqzgWUAu2UNe9Md+zYTvv27dDrCzYyDQsL49NPPyUqKkrCVIi/MRqNnD17ljfffDM/oXpKUZRSjsoP8SeAG2g7LG2NMhqz2b9/H888069AdR71ej1t2rTh8OHDZGRkyGZ9If5F7pHVuLg4xowZk59KbTsURXFzUIyIXKB+bSlMQeP06VMMGza0QFujPDw86NSpEwcPHrx3YZ6EqRD/LvdkVWRkJN26dcvPgZmvHZUjQlFyry3B0lQ/MvIK7733LkFBQfkOUzc3N+rXr8+ePXvk9lEhrJQ7Uj19+jT9+/enTJkytvY9uU7FEYC+oKmWtkdduRLBxIkTqFq1Sr7D1N3dnXr16vHZZ5+RmZkpYSqEjXJycjh58iRDhgyhYsWKtlSrUhVF6euwYHkQAa3I83bSuyPTixcvMHXqFOrUqZPfcmP4+PjQqlUrPv/8c6Kjo534lRSieMvJyeHYsWOMHj2aGjVq4OLiYm0/NCiK0tBxCfMA4e7VJRbL8CUnJzFz5kfUr18/31c4+Pv706tXL3788Udu3brlvG+iECWEyWTixIkTvPvuu4SFhdnSH68riuLvqJx5IAB60DZZClOzOYdt27bSvn37fIepl5cX3bp1Y/PmzWRlZTnvGyhECWMymTh58iSvv/46/v7+tvTLjYqi6B0WOCUdqFOsWYS6evUKr776KkFBgfkKU1dXVxo3bszXX39NRkaGE796QpRMRqOR7du307NnT7y8bLqvbYrDAqckA7rntQilaSqapnL7dhwffTSDSpUq5StM9Xo91atXZ8KECVy8eFEWoISwk8zMTMLDw+nSpQu+vr62LFJ1dFjwlETcvQsqxdI0Pzo6ivnzv6RKlSr5WoTS6/XUrFmTsWPHcuLECTkBJYSdpaWlsXnzZp566ikCAgKs7atxitxNlT/cPQl13NL2qOTkJKZOnUJoaPl8r+hXrFiRWbNmyXFSIRwoKyuLw4cPM2DAAFtOMR5T5CSV7UCda80Z/T179lCpkk372/7SfH19mTJlCpGRkXK9sxAOlpGRwaZNm6hataot/Xau45KoBAD6WApTVTVz82Y0w4YNzVeQKsrdC/VeffVVLl68KGEqhJPExcXx7rvv2rozp4vDAqk4A8qBdsdSoGZkpLN16xZCQ8vnO1Dbt2/P3r175RSUEE5kNpuJioqid+/etoRqrKIo5RwWTMURd/eb7rS0RSotLZXNmzfRrl27fE31dTodVatWZf369dy5c0dGp0I4kaZpmEwmLl68yODBg22pUPWLIvtT78+a/aYmk5F9+/bRtesTtu5juxemZcqU4YsvviA+Pl4WoYQoAnJD9fz58wwcONCWjf/jHZlRxQbQwlLRE9A4c+Y0Q4e+nu9yfP7+/kyePJlbt25hNptlqi9EEZFboergwYM8+uij1g6YjIqiPOLAqCr6AHfQLucdpnc378+dO5fKlSvnK0wDAgIYNGgQ169flwLRQhRRBoOBOXPmULt2bWsLqVxUFMXDgZFVtFkz1c/OzmLbtq08+WQ3W6rV3Gs+Pj488cQTHDp0yIlfFSGENc6fP8/LL79MYKDVx8inODCyii6gCWhGSxv4z507y5gxoylXLsTmMHV1daVJkyYsXboUo9HoxK+JEMIaRqORn376iW7duln7ei9bUZSHHJldRQ7gAtoJa1b1v/pqPg0bNrR5dKrX66lcuTLjxo0jLi7Oed8QIYRNUlNTWblyJR06dLD2auo9iqK4ODTEihKsuMoENI4dO8ozzzyTr5J8pUuXpn///hw4cEC2RwlRzKSnp/PVV19Rv359a29QfTCvTgEqgJZuzeh02rRpVKli+1Umer2eFi1a8P3332MymZz3rRBC5FtUVBQTJkwgJMSq133piqJUdGSWFQmghVuz53T79m20adPG5jDV6XSEhoby4YcfkpKS4sSvgxCiIMxmM0ePHuXll1+2duof7tAwczagq6Uw1TSViIjL9OnTB29v73xN9d9++20uX77svG+CEKJQGAwGVq1aRf369a3NgK6OzDSn4e5C1AXLU/00Ro8ebe0w/x+r+v369ePgwYPO+wYIIQqNpmlcvHiRkSNHWjtKPac8CAtUWLkQtXTpUurUsXpj71/aY489xqZNm0hPT3faF0AIUXg0TcNoNLJz505at25tbQ2PoQ4NN0cDgkBLszTVT0tLpX///rYUSbjXfH19+eSTT4iJiZFVfSFKEE3TSEpKYunSpdZu+I9XFKWsIzPOoUD92lKYqqqZ48ePUb9+fVuqeN9rTZs2Zfv27bKBX4gSyGw2c+XKFUaNGmVtPnzt0JBzFKA5aGZLJ6Lu3Enmww8/ICgoKF+j0wkTJhAZGSnn9IUoobKysjh48CAtW7a0JhfMiqLUdWTWOQRoRyy9N83KMrBu3VoaN26Em5ubTWGq0+l48cUXOXLkCFlZWU78uIUQ9qRpGikpKXz77bfUqFHDmvepOxwcd/aFFdukVNVMdPQNHn/8sXydiGrUqBG//PILmZmZzvukhRAOoaoqcXFxjB8/3tptlSVnGxVopy0FampqCt9+uxxPT6u2RPyleXp6MmfOHJKSkmSqL8QDIHfV/9ChQ9ZeH/+7Y1PPToDelsI0J8fEmTOnefTRR20OU3d3dzp27MjVq1fJyclx3icshHAoVVVJSkqiV69e+Pr6WpMXvR0afoWNu5v48xydatrdwtGff/4/XF3zV0lqzZo1ctGeEA8gVVVZunQp9erVs2bdpXiPUoGBlkan2dlZ7Nmzh2bNmtk8OvXz82PAgAFy0Z4QDyhN07hz5w6jR4+mbNmy1uTGAIeGYGHh7ug00tLo9NatW8yaNQsfHx+bR6fVqlVjxYoVcp2JEA+4U6dO0apVK2tGqVeV4ngkFStGpzk5Jo4cOUy/fn3ztRD16KOPEh8f77xPUQhRJKiqyuzZs6lWrZo1+THQkVlYYIAOtIuWAvXOnWSWL19GzZo1bQpTnU5HtWrV+Oyzz2RkKoRA0zQSExPp06ePNdsuzyuKonNsKhYANpTnGzdurM2b+L28vOjWrRvXr1933icohChSVFVl8eLF1pb4Kz77UkHbZvlUVBZr166lcePGNo9OGzduzNq1a2WblBDiL65du8bw4cMJDg62lCXbHByL+cPdM/uapUA9e/YMQ4cOxdvby6ZArVixIu+//z5JSUnO+9SEEEVSdnY227Zto0uXLpbuoNIURanj4Hi0HairrTlm+t1331KnTm2bV/afeOIJDh06JO9OhRD/oGka169fZ9iwYdbsHFrm2HS0EXcv3suxFKhRUdcZMWKEtZW377Xy5cszceJEuSNKCHFfmZmZzJ49m8qVK1vKlBylKF/oB+pMa7ZKrVu3jtatW9sUpi4uLnTq1IlNmzbJu1MhxH1pmsa2bdt4/PHHramZOtPBMWkdwBW0REuBevXqFUaMGG5txe2/jE7Hjx/PtWvXZLovhMjTrVu3mD59OhUrVrSULfGKorg5Ni2tAAyw5t3pt99+S7Nmzay9E+beyn7Hjh1Zv3691DoVQlikqioHDhzg6aeftiZjil7RFND2WgrUlJQU3n57BAEBATaNTj08PBg8eDBnz56V0akQwirJycnMmTPHmrvpitYWKqCyNVulfv/9JD17PmVzAeng4GA+/fRTUlNTnffpCCGKnV9//ZXOnTtbyhhNUZRqjk3NPIA6xZqTUWvXrqFZs2aW9of9o7Vp04YtW7Y48WMRQhRH8fHxzJkzB09PT0s5M8WxqXkf3F2MirJ8MsrAtGkfUqVKFZvC1NXVlXfffVeOmQoh8mX//v08/PDDlrImUikK5/uxoiI/aMTGxtCnT29r/lL8Y3T6yy+/YDabnfaBCCGKr/j4eD7//HNraoY4/3w/aOHW7D3dunWLzef2FUVh1qxZxMXFyWKUECJfsrKy+OWXX3jooYcs5U24Y9PzbwA/0NIsBarBkMk774yjXLlyNoVp7dq12blzp2zkF0Lkm9ls5sV7fmkAACAASURBVPTp0/Ts2dNS5qQpiuLu2BT9E6zYewoaERGXadu2jc2r+2+++SYRERFO+yCEEMWfpmlER0fz/vvvW3PltPP2pFoqhKJpKpqmMnPmTMqXt210GhISwtq1a0lLS3PmZyGEKAHS0tLYsGED1atXt5Q9qx0co3dhxXRfVc1cv36N1q1b21wIpWfPnpw5c0am+0KIAsvJyeHixYv07NnT0ilN50z7sWK6bzIZ+eqr+QQFBdkUpi4uLnzyySeyGCWEKBSappGcnMynn35qzU4jx0/7LU33VdVMYmICnTt3wsPDtnenZcqUYcuWLWRkZDjzM8g3TdMwm81kZ2dz48YN9u/fz7p161i6dCmLFi1iyZIlrF27ll9//ZUrV66QkZGB2WyWPx5C2JHRaOTo0aMEBwdbOlzk2Gk/Fqf7KtnZWezatYvAwACbTkbpdDoaNmzI77//jslkcuLjt52maZhMJhITEzl16hQ//vgjkyZN4sknn6R69er4+fnh7u6Oj48PVatW5fHHH2fMmDF8++23HD58mMTERAlWIexE0zTu3LlDp06dLO1Jdey0HwuX8Kmqmfj4OEaPHmXzRn4PDw9efvllYmJiilWwaJqGwWDgwoULLFmyhJdffplKlSpZ/GOi0+kIDAykV69eLF26lMuXL5OdnV2sfnchiousrCy++OILawqmOG6TP6hf5xWo2dlZHDnyG82aPWxTmT69Xk9oaChr164tdtP9rKwsTpw4wbhx46hSpYrN9QpcXV2pXr06o0aN4rfffiMzM1NCVYhCZjabuXbtGjVr1sTFxSWvPjnXMWmqKApo1/PaKpWYmMDnn8+lTBl/m0LF3d2drl27kpycXKzCxGw2c+bMGd58801r9rnl2dzc3GjevDkHDx4kKyurWD0HIYqLIUOGWBqlXrR7kCqKogC1LU33r12LZODAgTaHSalSpVi6dCnZ2dlOfNS20TSNmJgY3n//fWuuW7C6tWzZkhMnTqCqqoSqEIUsPDycChUqWOqHte2ZpYqiKAow0tJWqaNHj1hT3eUf0/1q1aqRkJCAqqpOfNS2yczM5LPPPiM0NLTQwlRRFLy8vBgxYgSXL1+WQBWikMXFxdG0aVNL0/6Rdg1TRVEU0LblFaipqSn88MMq/Pz8bAqQgIAA3nnnnWK1yq2qKj///DOPPvqoTe+KrW1VqlRh5cqVclpMiEKWmZnJ66+/bun2EPtW8gfcQTPmFajnzp2lX7++Ni3KuLm50bJlSy5duuTER2y7iIgIhg0bhr+/be+KrW3u7u4MGzaMc+fOFZs/MkIUBzk5OWzYsIFatWrl1QezFUXxsGeg5rldymDIZP36HwkODrYpOEJCQhg/fnyxO2YaHh5Ou3btLE0bCtQeffRRduzYUez25ApRlGmaxuXLl2nbtq2ltQ/7bZ8CdWZegXr58iVGjBhu842mjRo1Yvfu3c58vjZTVZXZs2dTo0YNu4WpoijUrFmTFStWYDAYnP0rC1GiJCYmMmDAAEuvJ2faMVDvf7OpyWTk5583UqdOHZsCw8fHh6effpqYmBinPlxbZWVlMX78eJtH47a2MmXK8OWXX5Kenu7sX1mIEiUzM5N33nmH8uXL59UH99opTPEELet+gXrr1k2mTp1izTUDf2kVK1Zk4sSJZGZmOvPZ2iwlJYURI2y/EtvW5ubmxieffEJKSoqzf2UhSpScnBy++OILatasmVcfNCiK4mWPQO14vzA1GrPZtm0rXbpYvK71H2HRqlUr1q1bV+zujEpKSuKNN96w24LUn9v06dNJTk529q8sRInz008/0bx5c0uvKTvaI1DH3y9Qb96MZsqUKTaX6QsICGDQoEFcvXrVmc80X5KTk3nzzTcpU6aMXcNUr9fz0UcfSaAKYQcnT56ka9eulm4TGW+HQP33y/g0TWXXrp306NHD5itOwsLCmD17drFcwU5PT2fUqFEEBgbaNVC9vLz47LPPSE1NdfavLESJExsby4ABA/Dy8sqrHxbu5X2AHrSk+y1GLVy4kLCwMJuCwsXFhS5durBr1y6nPtD8MplM/Pe//y30E1J/byEhISxatKjYFYsRojgwmUy88cYblC5dOq9+mKAoir4wA7Xx/UanCQnxTJo0yebFGT8/P9566y0SExOd+kAL4uuvv6Zu3bo2V5aypTVu3Jj169cXq/oGQhQnn3zyCdWqVbPUFwvvXD/3ue5E01ROnTrJc889a/Pm9tatW7N+/fpifQLo+PHjPP3004VaFOXPTa/X079/f44cOVKs6hsIUZxs376dtm3bWuqPAwoxUP99Q7/RmM3ChQuoX7++TUHh6enJuHHjiv1CS1ZWFnPnzrXb5n4/Pz9mz54td2sJYUdRUVH069fPUn8svA3+9yuIkpSUyFtvvYmPj201QJs2bcrq1auL/ahL0zTOnTvHwIEDC/34qV6v55FHHmHXrl3FctFOiOIiOzub119/3dJMs/AKpYAW92+B+ssvO+jYsaNN7xD1ej2vv/56sSuEcj/Z2dls3LiRzp07F2rFqfLly7NgwQLi4+NldCqEHWmaxocffkhISEhefTKukMKUcv8WpllZBiZMeN/Ssa1/tLCwMBYtWlSijlImJSXx3Xff0aZNG5tPiv3bH5xKlSoxbdo0rl27VuwOPAhRHH377bc0btzYUv8sVxiB+q8Vpg4dOkiXLp1xc7N+QUav1/Piiy9y9OjREhcUMTExLF68mLZt29q8Hze3eXl50aJFC2bNmsXVq1dlqi+Eg+zbt48nn3zSUh8teOUp/uWEVFaWgXfftVhU4B8tODiYefPmkZCQUOKmsWazmVu3brF69WpeeeUVS+eD/9JcXFwIDQ1l0KBBrF69mlu3bhW7UoZCFGe3bt1iyJAhll5fFryCP6ir/x6op079TuvWrXBxse2dYevWrdm+fXuJHXmpqkpGRgZnz55l/vz5vPjiizRs2BA/P79/fFA6nQ5fX18eeughevfuzcyZMzl9+rRcIS2EE5hMJiZPnmzpxNTXhRCofy3Zp2kqc+Z8SuXKlW1+Nzhw4EBOnTr1QASG2WwmOjqapUuXMnz4cHr16kXnzp3p0KEDnTp1olevXrzxxht8+eWXHD16FKPR6Oz/y0I80D7//HNLJx/3Fkag/uXK6JSUFJ5++ml8fX1tClRfX18+/vhjbt265ezn5nBGo5GoqChOnDjBwYMHOXbsGNHR0RKiQhQh33//PQ0aNMgrx64XMExxAc2cOzLVNJX9+/fTsGFDm04H6XQ6ateuzebNm6XyvBCiSNq+fTudO+dZgjRHURTXggRq1T9P9bOyDMyYMd3Sfq1/NHd3d0aMGFEsy/QJIR4Mp06d4sUXX7SUZ1ULEqj3ikqrqpkbN6Lo27evzdP9gIAAtm7dWuyq8gshHhw3b95k1KhRlvKsY0ECdWBuoObkmDh48CDVq1e3+URQ7969iYyMfCAWo4QQxVNmZibTpk2zlG8DCxCo6pTc6X5GRjrTp0+nVKlSNoWpi4sL33//vRRIFkIUabnFjixk3JSCBOp3oGE253Dz5g3atWtr09FKnU5Hw4YNuXLlSok7GSWEKFmys7NZsGABFSpUyCvXFhUgUO9WmUpPT2Xx4oWUKlXKpkIoXl5eLFiwgPT0dJnuCyGKNKPRyMqVK6lbt25euZb/qlOgHdY0lejoG3To0N6mMHVzc6Np06ZcuXJFjlEKIYo8k8lEeHg4LVu2zCvbDhckUK9nZKSzceNP+Pj42PTu1M/Pj7Fjx8roVAhRLOTk5LBjxw4ee+yxvLLtYr4DVdPU7Kio6wwd+rpNYarX66latSobN27EZDJJoAohijyz2cz+/fvp06dPXvmWkq8wBTwzMtLZunULDz1Uy6ZA9fHxoXv37ly5cqXYV+UXQjwYVFXl2LFjvPDCC5YyzjM/gVruypUIhg8fbnN9z9DQUGbOnElmZqaMToUQxYKmaZw9e5YhQ4ZYyjjbC02bTKbGO3Zss3l06uLiQsOGDdmzZ4+zn48QQlhN0zQuX77MiBEjLOWc7VdKJyXFd/3yy3mULm3bRn4vLy+6du3K7du3nf18hBDCJteuXWPs2LGWcq6lzYF66dL53m++OczmO+fLlSvHe++95+znIoQQNouOjua9996zlHO9bQ7UnTt39n700Y42halOp6N58+YcOnTI2c9FCCFsdvPmTSZNmmTpPL/tgbp48cIB5crZVqYvMDCQN998k6ysLGc/FyGEsFlMTAxTp061dMR+gM2BOnjwoIEuLi42BWr79u05cOCArOwLIYql2NhYPvzwQ0s7mwbaHKh169YdakuY+vv7M2LECKl5KoQotmJjY5k2bRoeHh6FG6geHh4jbQnUpk2bsmLFCmc/DyGEyLe4uDimT5+Op6dnXnk31OZAVRRlvLVh6uXlxUsvvcT58+ed/TyEECLfrAzUkfkJ1CnWBmrDhg1ZsGABaWlpzn4eQgiRb3FxccyYMcNSoI63W6C6uLjw3HPPcfz4cSkiLYQo1nID1cvLK6/cm5KfQLVqyl+qVCnee+894uLinP0shBCiQKwM1HyNUK1alKpatSpffPEFBoPB2c9CCCEKxMpV/ny9Q7UYqHq9nk6dOrF161bZeyqEKPas3Nifr0C1uA/V19eXiRMnEh0d7eznIIQQBXbr1i0mT56MhUNN+do2NdBSoDZu3Jjw8HBZjBJClAg3b95k4sSJlu7PG2iXQB09ejRXrlxx9jMQQohCcePGDWuqTdl+lv+P/+i+P7Rs2bKsW7cOk8nk7GcghBCF4vr164wbN85SoNpebeqP/+i+P/S5557j1KlTshglhCgRNE0jIiKCt99+2y6B2vF+P7Bs2bKsWrVKTkYJIUoMVVU5ffo0r776qqVA7ZifQK19vx/4/PPPc/78ebnRVAhRYpjNZg4fPsx//vMfS4Fq+51Syt2b/f7xwzw9PVm6dCnJycnO/v2FEKLQmM1m9u7dS48ePSwFqu23nip3757+xw+rWbMmBw4cIDs729m/vxBCFJqcnBy2bt3Ko48+ailQPfMTqIqiKNl//2Hdu3fnwoULsvdUCFGimEwmNmzYQIsWLfIK05T8hqmiKMr1P/8wnU7H0KFDiY6OltV9IUSJYjQaWblyJXXr1s0rUC8WJFAP//mHubi4MH78eG7fvu3s310IIQpVdnY2CxYsIDQ0NK9APVyQQN325x/m6urK+++/L4EqhChxDAYDs2bNslRceltBAvWbv//AESNGEBMTI1N+IUSJkpSUxIQJEywtSC0qSKBO+fsP7Nu3L5cvX5ZFKSFEiXL16lWGDRtmKVCnFCRQB/79BzZo0IDffvsNo9Ho7N9fCCEKzbFjx6zZ1D+wIIHa8e8/0MPDg8mTJ3Pz5k1n//5CCFFotmzZQseOHe1y7DRX1X/7oVWqVOGHH34gNTXV2c9ACCEKxfLlyy1tmeKPTMw3V0VRcv7+Q11cXGjZsiXh4eFkZGQ4+zkIIUSBffLJJwQGBuYVpmZFUVwKEqiK8rfN/bnN3d2dDh068M0333Djxg1ycnKc/TyEECJfMjIyGDduHK6urnkF6vWChqmiKMre+/0D7u7uNG3alLFjx7JmzRqOHz9OQkKCVKESQhQrly5d4vnnn7c03d9bGIG6OK9/RK/XExISQuvWrXn55ZeZOXMmGzduJCoqCrPZLPtVhRBF3rZt2+jUqZOlQF1cGIFq8Tpp5Y/3qn5+flSuXJn27dszfvx41q1bR0REBEajUYJVCFFkLVy4kDp16ljKuXzddvp3Xa0J1D83nU6Hj48PDRo04O2332b16tUcP36cpKQkTCaThKsQoshQVZWJEydaWpAq8JapXP9aaNqWFhwcTL9+/Vi8eDEnT54kMTERo9EorwSEEE6XlpbGoEGDcHFxsZRl+Sos/W/iChqqiqIQEhLC888/z5IlS9i/fz+XL18mISGBrKwsCVYhhFOcOXPGmir9cYUVporyt6pTBW1eXl7Url2bAQMG8Nlnn3HkyBHZdiWEcIpVq1bRtGlTS7lVoCpTfzezMAM1t+l0Ovz9/XnuuedITEx09nMVQjxgNE1j0qRJlC9f3lJezSzMQB1gj0DNDdVWrVoRGRnp7GcrhHjAZGZm8sorr+Dj42MpqwYUZqDWt1egKopC3bp12bJli7OfrRDiARMVFUXfvn0tFZXmjwwsHFOmTNFXqlQpwc0tz2NZ+W6hoaF88MEHzn62QogHzOHDh+nSpQtubm55ZVSSoij6QgtURVGU9evXhU+aNJFHHnkEb2/vQg1UT09PHn/8cTIzM539fIUQDwhVVVm5ciWNGjVCp9PllVHhhRqmiqIoGRkZ4yMjr7Jx40+MHTuGFi1a4OfnW2jvUWvWrMnRo0ed/YyFEA8Io9HIRx99RJUqVSxl1PhCD1Sgo6qaMRgyiIi4zKZNP/PRRzPo2fMpypcvbynhLbbg4GDmzJnj7GcshHhApKamMmzYMIKCgizlU0d7BKoXaAbQyG137iTzf//3Kx98MJWuXZ+gatWqeHt7WyqB9a/N29ubnj17yukpIYRDxMbG0qNHD7y8vPLKpixFUTwLPVDvhqp2+M+BChqaphIff5vdu3fx8ccf89xzz9G0aVP8/UvbNGrV6/VUq1aNmJgYKf8nhLArVVU5ceIEzZo1s5RTe+0SpncDVZ3790D9c8vMzODs2TMsWrSQ/v37Ubp0KZtGqf7+/qxbt04uABRC2JXRaGTBggVUrVrVUi4V6ob+vwUq3fIK1NxmMGTy6697qFu3jk2jVE9PT1566SXS0tJk2i+EsJs7d+7Qt29f/Pz8LOVSN3sGqgdo2ZYCVVXNREff4LHHulhTweVec3Fx4aGHHiIyMhKz2ey8py2EKNF+//13atasaWnAZ1QUxd1ugXo3VLVt1oxS79xJZvToUdacQLjXdDodZcuWZc2aNXL5nxCi0GmahqZpzJkzh7Jly1rKpEItiHKfQGWkNYGamZnB6tWrKF3atsUpb29vhg8fTkJCgkz7hRCFStM0zGYzTzzxhDWDvUKp0G8pUGtbE6hmcw43bkRRs2aYTdN+nU7HI488wqVLl2TaL4QoVDk5Ofz2228EBwdbk0dV7R6od0NVu2gpUDVNxWDI5LXXXrOmkstfWsWKFfm///s/srKynPjohRAlTWZmJmPHjrXm+PxFh4Tp3UDNe/tUbsvJMfHTT+HWnET4S/Pw8GDVqlWkpqY678kLIUoUVVW5desWderUsWbWPNeBgUpXawJV01QSExOoV6+uTdN+RVGYMGEC0dHRsslfCFEoMjMz+emnn/Dz87NmXaerIwPVHbQ0awJV01QGD36N0qVL2xSonTp14sSJE3I1ihCiwDRNIy4ujpEjR1oq1YeiKGmKorg5LFDvhqq62ppRKmiEh2+gZs0wm1b7g4KCWLFiBSkpKU77EIQQJUN2djZHjx6lTZs21uTQaoeGqaIoCjDA2kC9eTOaXr164etrfbk/nU7Hiy++yPnz5531GQghSoikpCQWLVpESEiINfnT28FxqiiAnzXTftAwGrOYM+dTa87N/qWVL1+e9evXy2q/ECLfVFXl6tWrDB061JpKeI6f7ueydtqvqmYOHz5Ey5Yt0ettq5v6zjvvyAV+Qoh8M5lM/Pbbb7Rr186azHH8dD8XNkz7ExLi+c9/+tu8J7V58+Zs3bpVNvkLIfIlLS2NtWvXWruZ3/HT/VzYMO3PzMzggw+mUKVKZZsC1c3NjWnTpnH79m2nfSBCiOJJ0zSuXr3K6NGjrckb5033c4G6wto9qT///BOtWrVEr9fbFKpt27Zly5YtcrZfCGETo9FIeHg45cuXtyZrVjg2Pf8FNmzyv3DhPH37Po2Hh4dNgRoUFMTs2bPl5JQQwiYRERGMGjXK2i2bjtvMfz+ADrRIa0I1KyuL0aNHUaZMGZsC1cPDg9dee42zZ8867YMRQhQ/4eHh1KpVy5qciVIURefQ8LwfUKdYO0pdtWoljzzSwuYKVB06dGDDhg1kZ2c779MRQhQbkZGRjBkzxpqTUSiKMsWxqZkHoBpomjWheuVKBK+99qrNq/2VK1fmww8/JDY21mkfkBCieDCZTKxdu5bmzZtbky+aoiiVHRqaloC215pAzc7OYuXKFbRo0cLmaX+PHj3YuXOnbKESQuTp7NmzDB06lFKlrLoo1P6V+W2FDXtSb9yI4u23R9i8OFWpUiWmTZtGZmamsz4nIUQRl5OTw3fffUfTpk2tXYxy3t7T+wHcQIu3JlDN5hxWrlxBgwYNbApUNzc32rRpw5w5c1i2bBmrVq0iPDyc7du3s3fvXg4dOsTJkye5dOkSUVFRxMXFkZKSQmZmJllZWWRnZ5OdnY3RaMRoNGIymTCZTOTk5JCTk4PZbMZsNqOq6r27Z4QQxUtSUhITJ060tg5zoqIorg4NS2uB+pG1o9Rz584yZMgQXF1tq5Pq5eVFxYoVqV27No0bN6ZVq1Z07tyZ7t2707dvX55//nkGDx7MiBEjeOedd5g0aRLTpk1j9uzZfPHFFyxatIjly5ezatUqNmzYwJYtW9i1axf79u3jyJEjnDp1iosXL3L9+nViYmJITEwkJSWFtLQ00tPTycjIICMjg8zMTAwGw72gzg3o3GD+cyhLMAvhGGazmVOnTvHss8/i7u5uTaZMd2xK2gCoCFqONYGanp7GkiXfUL16NZsCNT9Nr9fj7e1NUFAQlSpVombNmjRo0ICWLVvSqVMnnnzySfr27csLL7zA4MGDefvttxk/fjxTpkxh5syZzJ07ly+//JIFCxbwzTffsHz5clasWMGaNWtYv349GzduZMuWLezYsYM9e/awb98+Dh8+zNGjRzl58iRnzpzh/PnzXLp0iYiICCIjI4mKiuLmzZvExsYSHx9PUlISKSkppKenYzAYMBqN5OTk3AtmIYRld+7cYeHChTRu3NiabMhRFKWCvXOxQKwtmGI253Dy5HFefXWQze9SHd30ej2enp6UKlWKoKAgypcvT+XKlalZsyb16tWjcePGtGjRgrZt29K5c2e6detGz5496du3L88++ywvv/wyQ4YMYfjw4YwePZrx48czefJkZsyYwezZs5k3bx5ff/01S5cuZeXKlfz444/8/PPPbNu2jd27d7Nv3z4OHTr0l4C+cOECERERXLt2jejoaGJjYzEYDHLDgXig7d+/n169ellzZxSKMwuhWAt4xNotVElJiSxZ8g01atRwemjau+n1elxdXXFzc8Pd3R1PT0+8vb3x9fXFz8+PUqVK4e/vT0BAAEFBQZQtW5bg4GBCQ0MJCwujUaNGtGrVii5dutC7d29eeOEFhg0bxtixY5kyZQrLli3j+vXrmEwmp32ZhXAmg8HAO++8Q7ly5azpk5qiKM0LmncOAdo2awLVaMxm//799OzZ0+mBV9SbTqdDr9ej1+txcXHBzc0NLy8vAgMDqVOnDh999BExMTEyQhUPJE3TOHz4MK1atbJ2Zb/obZW6H6w835+7hWry5Ml4eno6PbSKS9Pr9Xh5eVG1alWGDx9ORESE3L0lHki5i74Gg4FXXnkFf39/a/uR88/tW4u75/vPWxOoBkMmmzdvpmrVKk4PquLQPD09qV27Nm+88QYnTpzAZDLJwpV4YOUG6urVq215dXhRKSrn9q0FDLT2fH9k5FWGDx/u9LAqys3Hx4emTZsycuRIfvrpJ27evCnvS8UDT9M0Ll68yJNPPmnLcfaBtuaZ0wEuoF219jjqgQMHqFu3jtODq6g1Ly8vunbtyvz58zl8+DA3btwgPT1djt+KB56maRiNRsaMGUNISIi1dZYjFUVxyU+mOR1WHkfVNJWkpET+97+5Tg+wotRCQ0MZN24c+/fvJyEhAaPRKItOQvzBbDZz7do1mjVrZu0mfhRFGZCvMCsqQPvdmlDNyTFx6dJFGjVqaHNF/5LUXFxcCA4O5vnnn2f58uVERERIyUIh/kbTNDIzM1m5ciUBAQHWruyfLkCUFQ1Ab2tX/DMy0pk79zMeeqgWFStWJDQ0lHLlQggODiYwMJAyZcpQqlQpfHx88PLywtPTEzc3txIRwB4eHlSrVo1+/frx5ZdfcuzYMdLT02WxSYh/YTKZOH/+PN27d7fmaujcVvSKoOSHtaNUszmHqKjrLF68kP/9by6ffjqbWbNmMmPGdD74YCqTJk3kvffGM3bsWEaNGsmIEcMZNmwogwe/xiuvDOSFF17gP//pT69evejWrRtdunSmfft2tGzZkqZNm1CvXl1q1qxJlSpVCA0NJTAwAD8/Xzw83G2+3rowmk6no3Tp0jRv3pzBgwczb948Dhw4QEZGhkzthbgPs9nM9evXGTt2LH5+ftb2t332zDiHwup9qSqapmIyGcnKMpCZmU5aWiopKXdITk4iISGe27fjiIm5xc2b0dy4EcX169e4ejWCiIjLnD9/jhMnTnDgwH527drJli2bWb/+R1atWsnSpUuYP/9L5sz5lI8+msGUKZN59913ePvtEbz++hBefPEF2rZtQ1BQkLXThwI1X19fGjduzODBg/n222+5ePEiGRkZUkxFCAsSExNZuHChtddC57aO9k05B8PKAtQFaZqmYjabyckxYTIZMRqzycoyYDBkkpmZTkZGGmlpqaSmpnDnTjLJyUkkJiZw/vw5fvhhNYMGvULVqlXsOlrV6XSEhITQp08flixZwuXLl8nMzJQRqRBWMBgM7N69m3bt2tnS7/baO98cjrtn/M32DlXrgzeHO3eSOX36FJ9//j9at25tbUGFfDVXV1cCAwNp1KgRI0eO5ODBg7KPVAgbmM1mLly4wIgRI2xZ1TcrxeXMvq1A/dqZQaqqZrKzs0hMTODChfOsWPE93bp1o3Tp0nYLUg8PD8qVK8fDDz/MsGHD2L59O3fu3HHE90+IEkPTNJKTk1m0aBEVKlSwpQ9+bfdgcxagcW9JjAAAHPVJREFULGhpzhiR5uSYSEpK5MiR3/jss0/p1asngYGBdtsh4OrqSunSpXnkkUf473//y5EjR8jIyHDMt0+IEkTTNEwmE7/++iu9evWy5cbkNEVRguyfbE4EjHR0mBqN2Zw7d45JkybRqFEjSpe26uKufDWdToenpyf169fn448/5vfffyc1NVXekQqRT5qmERcXx0cffUSZMmVs6Y8j7R5ozsbdI6nnHBWo8fG3+f777+jU6VF8fX3sumfV1dWVevXqMXfuXK5fv37viKis3AuRf0ajkRUrVtCkSRNb+uMFpbgeMbUVNpT3y0/LyTFx+3Ycq1evolevnoSEhNj1VgAXFxdCQkJ49tln2bt3L6mpqRKkQhQCVVXZvXs3Tz31FG5ubrb0y+JTnq8wgPZj4U/vzaSk3GHTpo288spAHnroIVsq0Njc3N3dCQkJoUePHixatIjLly9jMBgc/JUTomTSNI2IiAiGDRtmS51TFEVZa/cAK2q4e6FfemG8IzWbc4iIuMTatWsYO3YMrVq1IiCgjN2m925ubtSqVYtXX32VpUuXcuzYMRITE+U9qRCF6OrVq7z33ntUq2bTRZ7pSlG/eM9eKOAClclk5NKli3z00QyefXYAzZs3p3z5crZODaxuOp2Oxo0bM3bsWFasWMHvv//OnTt3pJSeEIXs9u3bfPzxx9StW9eWs/ooijLU/slVRHF3gWqPrUGqqmaSk5PYtm0rQ4YMpkqVynh7e9ttROri4kJYWBivv/46K1euJCIiQmqSCmEnZrOZDRs20K5dO1uvRvrV/qlVxAEPgZZtbZje3QJ1lhkzpvP4449RqpSf3c7eu7i4UKZMGTp16sRXX33FpUuX7l3VLItNQtjHzZs3eeWVVwgMDLSlvxoVRalp98AqDkCdYm2gZmdnsX37Nlq0aGGXEWnuPtLQ0FDatGnD8OHD2bRpE9nZ2RKiQtiRpmmkpKTw5ZdfUr16dVv79xT7J1UxAXiAdtHaRajIyKtMmjSx0C/28/DwoEKFCjz66KOMGzeODRs2EBsb67QvmBAPClVVSU5O5ocffqBhw4a2roNcVhTF3QFRVXxwt3iKat0+UyOXLl1g7NgxhXLqydXVldDQUDp27Mi4cePYvHkzt2/fdtqXS4gHiaqqJCYm3tu8b2OYqoqitHBMShUztkz9TSYj586dpXv37gV6h+ri4kLDhg2ZOnUqx48fl8UmIRxI0zRSU1P58ccfqVy5cn768hQHxVPxA+hB+8XaUE1LS+X777/H398/36FapkwZVq9eTVpamrwjFcKBcouenDhxgpYtW+an/+5UFEXvoHgqnoByoCVb+z41MTGBfv36FqiWadu2bdmxY4csPAnhQJqmERMTw6xZs/JzNDxWUZRyDoql4g3oa22g5uSYOH/+HJ06dbJ1z9pf3qE+9dRT7NixQ46OCuEgiYmJLFu2jJo1a+an33Z2VB6VCKDOtTZUTSYjp079Tv/+z+R7kcrHx4fHHnuMNWvWkJaW5rxvmRAPgPPnz/Pee+9Rs2ZNW09CoSjKXIcFUUkC2m+2LFIdOfIbjz3WBS8vr3yFqp+fH3379mXnzp2yMCWEnZw7d44xY8YQGhpqS7Ho3PabwwKopAGqgHbH2lDNyjKwbNlS6tevn+9FqpCQEMaOHUt0dLSTvm5ClFxxcXF8/PHHVK9ePT99NEVRlMqOyp8SCXjK2v2pmqYSFXWdV18dRGBgQL4CVa/XU6dOHWbOnElMTIxUkBKikKSkpLB69Wo6dOiQn5GpqihKd0flTolm6/7UzZs30a9fP4KCgvK9SFWvXj0mT57MkSNH5HZSIQooPj6eVatW0aNHD1trm+a2KQ6Km5KPu/tTN1obqqmpKfz888/06dPn/9s787gor3OPzzDADCAMu6AoBFQgiktM4r6kdc/W3OS6xK1Uq+Bu0pg01rrGqKnGanoTNVdvrrG2pgYbqcbWuGJUFAVRjBByFQWVbYAZZpjlfb/3DxhrrGkYmAHU8/18fv+MIDPve85vnvc5z3MOfn4NW6RSqVS0a9eO6dOnc+LECbEhikDQQIqKiti8eTM//elPGzofUxWi3tS5AP4gX3Wk6H/PnhSee+7ZBteourm50bp1a6ZOnUphYaEwVYHAQQoLC/n973/Pk08+2dDF4msKhULbRDbzaAE8BbLJkUWq3bv/wsCBA1CrPRtsqm3atGHjxo3cvn37zllRAoHgh5FlmfLyct5///2GlkahUChMCoXiqSayl0cTaov+67VIBTLl5WV88sn/0LVrQoNX/lUqFZGRkXz88cfcunULq9UqTFUguA+yLCNJEgaDgV27dhEZGdnQbTYlhULxchPZyqMNDhydIkk2rl+/xnvvrSYkJASl0nFDtat169Zs2bKF/Pz8OxtNCwSCWmRZxmazUVpaypEjR+jdu3djjiOa1zRuIlAoFAoFSB/V11RtNis5OTnMmTMHrda3wYaqUCjw9vZmypQpHD9+HL1eLyJVgYBaM7VarVy/fp0NGzbQrVu3xuwC91GTmIjgnwAeIP+9vvWpNpuVgoJrLFu2tFFRqkJRe3x037592b9/PzU1Nc02iAWCloLNZiM7O5vExER8fRsVtPxdoVB4NIGFCO4F8AM5q76marVauHbtKm+99Vajj09Rq9UkJiaSkZEh2lQFjzRWq5X09HQmTZqEVqttTGSapVAo/JrCOwQ/ABAF8g1HTPXGjevMnj2rsd+k+Pv7M2nSJNLS0kTxv+CRxGq1curUKaZMmUJgYGBjzPSGQqGIaArPEPwIQDzIRY7kVC9fzmHs2LGNHQQEBgYycuRItm3bJlpVBY8UBoOBtLQ0pk+fTuvWrRszj256enrGNY1bCOoFDpiqPVI9efIEM2YkEx4e1ihT9fHxoUePHixYsID09HSRAhA81EiSxIULF1izZg3Dhw8nPDy8UWYaFOQrzLQlgoORqtlcw9mzZ0hOTiIsLKxRj//u7u5ERkYya9YssrOzhakKHkpsNhvHjx9nzpw5xMfHN3hTd4WITB8MqDXVsvqaqsViJiPjLLNmzaJt27aNMlV7//+0adM4evQosiyLsirBQ4MkSWRnZ/OLX/yCiIiIhnY/3TFThUIhzPRBAOjpiKmCzPnz55g1aybt2rVrdAWAr68vL730En/9618pKSkRnVWCBxZ755PRaCQ9PZ05c+Y09hEfhUJRphBm+mABdAf5liMLVadPn2bGjGQiIiIaO2Bwd3fniSeeYNOmTeTl5YkDAAUPHLIsYzabKSwsJCUlhVdffbWhW+/drdsKhaKr6x1A4HSAWEdM1WQykpZ2nFmzZvLYY481OlJVKpXExMSwaNEi0tLSKC8vF1UAggcCSZKoqKjg1KlTvPfee3Tv3r2xj/h2M+3o+pkvcBnUmmq9t/2zWi3k5l5h5cqVxMZ2csYgwsfHh2HDhrFjxw4KCgowm83NNU8Egh/FZrNx+/ZtUlJSeOGFFxp8Rts9uqYQZvpwQO3ZVPU2VUmyUVZWyh//uIPHH493iqm6ubkRFhbGggULyMzMxGQyiRSAoMVhsVgoKChg06ZNdOnSpSFHldzXTL28vMRZUA8T1JrqN44sVBmN1Rw8+A8efzy+0TlVu1QqFSNHjuTLL7/EbDaLSgBBs2MfgxaLhczMTJKTkxu8Kft9lCvM9CEFaA3yxfoaqixLGAx6DhzYT3R043Oqdnl6ejJkyBB27dpFaWmpMFRBsyLLMmVlZWzZsoVevXrh6dmwzdjvo4sxMTGhLp7WguYE0IJ8pP6maqOqqpLU1L2MGTOaVq18nDLY1Go1MTExTJgwgT/96U/cunWrueaT4BHGYDBw6NAhZsyYQceOHZ1mphqN5siQIUPE0SWPAoAa5F2O5FT1+ioyM8/z7rvv0KFDB6fkVVUqFf7+/iQkJDBjxgzS09NFzarA5dg3gj558iRvvvkm/fv3JzQ01CljWqlUEhAQsGv27Nlq189kQYsBUIL0viOP/2ZzDTduXGfHjk8ZPHgQPj7OyTN5eHgQGhrK0KFD2bRpExUVFaK8SuASZFmmurqaDRs2MGTIENq0aYNGo3HKGoFKpaJDh+j3AaXLJ7CgZULtcSqyI8aq05XzxRd/ZfjwYc5M3qPRaIiPjyc5OZmjR4+i0+nEoYACpyBJEtXV1eTk5LB8+XLi4uIa24f/PXl7e9sGDOgnji0RKOwH/1U7UgGg11fx2We7+I//eInw8DCnPC7ZpdVqGTZsGCtXruTkyZPodDoRsQoahNVqRafTkZWVxebNmxk7dizt27d32gKrm5sb4eHh1aNHj37exdNU8CABJICc64ip6nTlHDz4d95441f07t0bf3+t00xVqVQSGRnJxIkT2bZtG+fOnaOsrEwYq6BeyLKMwWAgKyuLLVu2MGXKFBISEhpzaN6/SK1WEx8fnztr1qwE185OwQMJ4AvyZ46YqtlcQ15eLtu3/y+TJk1s9I5V98rX15eePXuSmJjI+vXrOXbsGCUlJSINIPhBDAYDFy5c4JNPPiEpKYlu3brh4+Oc6hS7wsPDefHFFz9bvXq1ryvnpOAhAJgJsrn+xiphMlVz9uwZ5s2bS5s2bZzWCGCXp6cn4eHhPPvss2zatInLly+LPVcF38NisZCbm8vOnTuZOnWq0/Okironp06dOprnzZsz25VzUPCQATwN8k1HolWbzcqVK9/wxhtvEBsbi4eHh9ON1c3NjYiICJKSkjh58iS3bt3CYrEgSZKIWh8x7B1OVquVsrIyTp48ydy5c2nfvr1Tx5xdKpWK6Ojoa+vWrXvadTNP8NAChIF8wBFTBZnKygr++Mcd9OnTm+DgYKfmrexSq9V0796dNWvWcObMGQoLCzEajaIq4BHAXkdqMpkoKSkhOzubTZs20b9/f6dWndjl7u6On58vXbp0ObBu3bpA1804wUMPoARmg2xyNFq9evU7XnttPgkJCbRq1crp0aqiLmKNiopiwYIFfPXVVxQUFFBZWXlnnwDBw4PdSPV6PdeuXePo0aOsW7eOvn37Ov3R3j62WrXyIS4uzjRhwoS5iPpSgbOg9miVc46Yam0zgIlz5zKYMmVKY0+G/LdSKpW0bt2avn378utf/5oTJ06g1+tFKuAh4O7NS7799lvWr1/P4MGDCQ0NdclYUijulEMxderUc9nZGfEumlaCRxnAA6QVINvqa6iyLGGxmCksvMH27dsZNGiQS6IJRZ2puru74+/vT1xcHDNnzuTYsWMYjcZmMwNB4zEajZw4cYJf/epX9OzZk9DQUDw9PV325axSqejSpbPtgw82vAN4uGo+CQQKhUKhAPqCfMORSNVms6LXV3H5cg6LFy8mJibGZdGF3Vh9fX3p1KkTEydOZO/evRgMhmayBEFDMJvNnDp1ihkzZtCpUye0Wq1LFjrvVkhIMImJifnp6V/3dc3sEQjuA6AF6SMcaFuF2hMBCgqu8eGH/8XAgQPQarUunSBubm5otVpiY2N59tlnWbVqFRcuXKCiokLkWVsQ9vxoRUUFV65cYevWrUyYMIHu3bsTGBjotM6mH5JW68fIkSPkrVv/e1N+fr7YJUrQPAADHO2wkiQbt2/f4sCBL3n99dfp1q2rMw4/+9GoVaPREBkZydChQ1m6dCmpqank5ORQXFwszLUZsOdFy8vLyc/P5/DhwyxcuJARI0YQGxuLn5+fy43U29uLTp06Mnv2rNyDBw8OcMUcEQgcAlCDtBxkiyNpgOpqA1eufMOePXtYufIdhg0b5vSOlvvJw8ODyMhI+vTpw0svvURycjJr164lNTWVvLw8kXN1MfZjRlJTU1m9ejXz5s1j3LhxDBo0iIiICJeU2d0rPz8/Ro4cwaJFCy07d+54Jy8vT2y3J2hZULsfwBnHKwFqKCoq5MCBA7z99q/p2rWrM3dN/1Fz1Wq1dOjQgcGDBzN58mSWLVvGrl27uHTpEhaLpZls5+HCZDKRl5dHamoqa9euZfr06QwePJioqCgCAwNdtlB5r9zd3YmOfoyFCxfyj3/8/cz169dFH76gZQNMA7nMUWO1WMwUFRXy6afbSUxMJC4uFo1G3SQTTalUolKp8PDwIDg4mKeeeorExEQ2bNjAvn37uHz5MkajUaQF6ok9J1pQUMCBAwdYv34906ZNY+DAgURERKDRaFz+OH+33NzcCA0N5eWXX+bDDz8oKywsnOLkYS8QuA4gsG7RSnK00wpk8vJy+cMfPuD5558jIqItarXrymR+SCqViuDgYPr3709SUhIbN24kNTWVc+fOUVhYSFVVFUaj8U7r66OGLMtIkoTFYsFkMqHX67l58yZnz55l7969fPzxxyxYsIBnnnmG4ODgJjVQRd2XpFqtpm3btgwZ8lMWLfqNNT391HpAdDsJHkyAbjhwhtW9FQEnTqSxcOHbjBgxnM6dOxMSEtIkObb7ycPDg4SEBMaNG8fy5cvZunUrKSkpHD58mPPnz5Ofn09hYSGlpaVUV1c/VE0F9ojTaDRSXl5OUVER3377LefPn+fo0aPs3buX7du3s2rVKsaMGUPnzp1Rq5vm6eJeqVQqtFotHTt2ZPjwYfzmNws5evTwETDHOWtcCwTNCjAa5IKGGGtFhY6MjAy2bdvKzJkz6devH2FhYU0e8dwtpVKJn58f0dHR9OvXjzFjxjB//nxWrlzJ5s2b2bNnD6dPn+bixYvk5+dTVFSETqejpqamxUezkiRhMpmoqKjg1q1bXL16lezsbNLS0ti7dy/btm1jzZo1vPbaa4wePZoBAwYQGxtLUFCQUzcad1QqlYrQ0FB69uzJxIkTWb9+PadPnyrQ6/VjnTOKBYIWBOANLAS5vKERq05XTnr6KRYt+g3x8XH4+/s3q7HaZW8m8PLyws/Pj6CgIKKjoxk0aBCTJ09m8eLFbNu2jWPHjvHNN99w9epVCgsLKS4uRqfTYTAYMJlMdw4pdGVka482a2pq0Ov16HQ6SkpKKCoq4urVq1y6dInDhw/z6aefsmrVKpKSkujfvz/t2rUjODgYPz8/vLy8mtU875Wvbyvi4uJYsGABX399grKyUp3ZbHoL8G7suBUIWjRAAEirQDY6bqwSkmSlqqqSjIyzvP76a0RFReLj490ijPVeubm54eHhgVqtvmO27du3p1evXrzyyiu8/vrrbNiwgd27d3P8+HFyc3MpLi6mvLyciooKKisrqaqqQq/XYzAYMBgMVFdXU11djdFo/J7sr1dXV9/5Wb1eT1VVFZWVleh0OsrLyykrKyM/P5+0tDR27tzJunXrePPNN5kwYQJ9+vShbdu2+Pr64uXlhUajwdPTs8VeW41GQ1BQIJMnT+Srr/5BWVmp0Wq1rgb8Gz5CBYIHEKANSJtAtjpiqPY9AuwtrSUlxaxevYrY2Fi8vLyafPGqsVIqld+TWq2mdevWdOnShUGDBvHcc88xduxYfvnLXzJ//nzeeustFi1axNKlS3nnnXd49913WbFiBYsXL+btt9/mjTfeYO7cuUybNo1x48YxatQo+vXrR+fOnQkLC7uzwn7v323u6+DI9dJoNERFRTJ//jxyci5hNtdYJUnaDIQ7NAgFgocNoBPIu3CwjdVebiVJNgwGPVlZmaxdu5bnn3/uTu93S4ys6qO7y7g8PT1Rq9VoNBq8vLzw9vbG29sbHx+f78n+ure3953oUq1W4+npiYeHByqV6oEyznvl7e1NZGQkQ4YMYfXq1WRnZ1NVVSlbrebPgA71HG4CwaMB8DhI/4sDHVd3y2IxU15exrff5rFv399YvnwZL774AjEx0c1WGSDUONXukv8YL774AgsXLmTnzp1kZWVSWlpislhqtgCP33cwCQSCWupSAe842hxglz1iLSy8TlZWJgcOfMkHH2xkwoTxdOzYEaWy+Y1C6N8rJCSEUaNGsXz5cr744gsuXMjixo3rVFToysxm80og5IdHkEAg+BeorQpIAvlKQ4zVnmM1mYyUlBRz8eIF9u/fx9KlS3j66SebrN1RqH7SaDQMHjyY3/52ESkpn3P27Flu3LiOwaDHarXkgpQsVu0FAicAjAL5Lw0x1rsN1mq1cOPGdQ4c2M/GjRuYNm0avXr1IigoCA8Pjwc25/qgSalU4uHhgZ+fH/Hx8YwePZp3332XQ4e+4vr1AiwWs/2+7QZG1XugCASC+lNbcsVMkNMbY64gYzRWk5NziT17Uli2bBnjx4+nb9++REdHExISgre39wO9iNOS5ObmhpeXF0FBgbRv346nn36aSZMmsWLFCnbs2MHp06coKytFliVAPgPMAgIcHiACgaBh1FYHSKtALmxs5FpSUkJGRgaff76bjRs38NvfLiI5OZmf/exn9OvXj06dOrWYJoIHRV5eXkRFRdG/fz9efvllpk+fxttvv8Xvfvcef/7zn8jMzKSqqtJuoldrj9ehU0PHg0AgcALUnsw6GKT/BrmysZGr1WqmslJHQUEBGRln+fzz3axdu5aZM2cyatRInniiB+3atcPHx0cYbJ2USiVeXl5ERETw5JM9GTFiOD//+c9ZsWI5KSmfc/78Oa5du0p5eSk1NUYkyUbtvZK2Aj9BnCgqELQ8AA0wBuRUHGoY+OEa15oaE1VVlZSWlpCVlclnn/2Z5cuXMXnyJIYOHUqPHj2IjGyPn58fKtWjYbAqlQo/P1/at29Pt27d+MlPnmH8+FdZsmQxKSmfk519geLi21RU6KipMdUZqETdPfkbMA7QOO3GCwQC1wIEA3NAPtHYqPWHyrNu3izi4MGDrFmzmokTJ9C/fz+6dOlCTEwM4eHhBAQE4OXlVVdc745Kpfpel5KiBZijXfb35Obm9r2mAi8vDQEB/rRp04aYmBg6d+5Mv359GT9+PKtWrWL//n1cu3YVq9Xy767XCWAuEOzi2y4QCFwN0Kq2UkD6HcjnaOA+rT8W0ZpMRnJzc+uO91hFUtJ0Ro0aSd++fejevTuxsbFERkYSFhZGYGAgvr6t7vTL2zua3N3dcXf/p/ne2yaqqKcx3m2QdpO0/9+1ZulxpwPLx8eHgIAAwsLCiIqKIi4uju7du9OnT2+GDx9KUtI01q9fz969X5CTcwm9vsqe+7yfpNprLP0OeBZo1Xx3XiAQuBwgEHgFpP8C+bIrItjvL3oVc/FiNvv2/Y2PPvqIJUuWMHPmTMaOHcvw4cMZOHAgffr0oWfPnnTt2pX4+Hg6dIghMjKSiIi2hIWFERISQlBQIAEBAfj7+6PVavH19cXX1xc/Pz+0Wi0BAf4EBgYSFBRESEgIYWFhRES0JSoqko4dOxAfH09CQgI9evSgd+9ePPPMYEaOHMGYMaNJSkpiyZIlbNmyhS+/3M/Fi9mUlBRjs9nq8zkv115L/hOxgbNA8GgDhAGvgrQZ5DxnG6o9HytJNmw2K1arBavVgsVixmisRqcrp7j4NjduXOf//u87cnO/4dKlbDIzz5ORcYbTp0/x9dcnSEs7xrFjRzl69AhHjhzm0KFDHDr0FYcPH+LIkcMcO3aE48ePkZaWxtdfn+D06VNkZJwlKyuTnJyL5OZe4bvv8ikouMbt2zepqqqgpsaExWK+855sNuud92p/7/f5XHkgbam9ZoQ19/0TCAQtGCCizmC3gJzhyuj1XrO913DtMptr/kU1NTXU1JioqTHd99/N5n/+/t2GaTfNf2OY9yqjzkDHAxHNfX8EAsEDDLWlWVHACGAuSB+CfBjkm65MFzSxbtZ+JulDYF7dZ41ClDQJBIKmgtoFr17ApLpNXf4CcjbINS3AJO9VDcgXQd4N0kpgMtAbsXAkEAhaOkAMMBh4BZgCvAbSMpB+D9InIO8B+RDIJ0E+T+0C2XcgF1G721b1XWZYXfdaUd3PXK77nZMgfwVyCkj/A9J6kJbW/i1+Abxc9x4ea+7rIXi4+X+QiNKlSU+PiAAAAABJRU5ErkJggg==;" vertex="1" parent="1">
          <mxGeometry x="846.5" y="354" width="87" height="84" as="geometry"/>
        </mxCell>
        <mxCell id="k94eyKAQCkePa_4UFT7v-15" value="" style="endArrow=block;html=1;strokeWidth=5;exitX=0;exitY=0.5;exitDx=0;exitDy=0;startArrow=none;startFill=0;endFill=1;" edge="1" parent="1" source="k94eyKAQCkePa_4UFT7v-3">
          <mxGeometry width="50" height="50" relative="1" as="geometry">
            <mxPoint x="516" y="417" as="sourcePoint"/>
            <mxPoint x="590" y="400" as="targetPoint"/>
          </mxGeometry>
        </mxCell>
        <mxCell id="k94eyKAQCkePa_4UFT7v-24" value="" style="shape=image;html=1;verticalAlign=top;verticalLabelPosition=bottom;labelBackgroundColor=#ffffff;imageAspect=0;aspect=fixed;image=https://cdn0.iconfinder.com/data/icons/business-management-2-14/256/b-91-128.png;strokeWidth=5;fillColor=#ffffff;fontSize=20;fontColor=#000000;" vertex="1" parent="1">
          <mxGeometry x="420" y="170" width="78" height="78" as="geometry"/>
        </mxCell>
        <mxCell id="k94eyKAQCkePa_4UFT7v-25" value="Bénéfices" style="text;html=1;strokeColor=none;fillColor=none;align=center;verticalAlign=middle;whiteSpace=wrap;rounded=0;labelBackgroundColor=#ffffff;fontColor=#000000;fontSize=20;fontStyle=2" vertex="1" parent="1">
          <mxGeometry x="310" y="190" width="130" height="30" as="geometry"/>
        </mxCell>
        <mxCell id="k94eyKAQCkePa_4UFT7v-28" value="" style="shape=image;html=1;verticalAlign=top;verticalLabelPosition=bottom;labelBackgroundColor=#ffffff;imageAspect=0;aspect=fixed;image=https://cdn2.iconfinder.com/data/icons/science-20/24/science-technology-07-128.png;strokeWidth=5;fillColor=#ffffff;fontSize=20;fontColor=#000000;" vertex="1" parent="1">
          <mxGeometry x="430" y="555" width="63" height="63" as="geometry"/>
        </mxCell>
        <mxCell id="k94eyKAQCkePa_4UFT7v-29" value="Solutions" style="text;html=1;strokeColor=none;fillColor=none;align=center;verticalAlign=middle;whiteSpace=wrap;rounded=0;labelBackgroundColor=#ffffff;fontColor=#000000;fontSize=20;fontStyle=2" vertex="1" parent="1">
          <mxGeometry x="314" y="580" width="130" height="30" as="geometry"/>
        </mxCell>
        <mxCell id="k94eyKAQCkePa_4UFT7v-30" value="" style="shape=image;html=1;verticalAlign=top;verticalLabelPosition=bottom;labelBackgroundColor=#ffffff;imageAspect=0;aspect=fixed;image=https://cdn1.iconfinder.com/data/icons/project-management-8/500/list-128.png;strokeWidth=5;fillColor=#ffffff;fontSize=20;fontColor=#000000;" vertex="1" parent="1">
          <mxGeometry x="1011" y="290" width="68" height="68" as="geometry"/>
        </mxCell>
        <mxCell id="k94eyKAQCkePa_4UFT7v-31" value="Aspirations client" style="text;html=1;strokeColor=none;fillColor=none;align=center;verticalAlign=middle;whiteSpace=wrap;rounded=0;labelBackgroundColor=#ffffff;fontColor=#000000;fontSize=20;fontStyle=2" vertex="1" parent="1">
          <mxGeometry x="980" y="352" width="130" height="30" as="geometry"/>
        </mxCell>
        <mxCell id="k94eyKAQCkePa_4UFT7v-33" value="" style="shape=image;html=1;verticalAlign=top;verticalLabelPosition=bottom;labelBackgroundColor=#ffffff;imageAspect=0;aspect=fixed;image=https://cdn1.iconfinder.com/data/icons/free-98-icons/32/sad-128.png;strokeWidth=5;fillColor=#ffffff;fontSize=20;fontColor=#000000;" vertex="1" parent="1">
          <mxGeometry x="941" y="520" width="78" height="78" as="geometry"/>
        </mxCell>
        <mxCell id="k94eyKAQCkePa_4UFT7v-34" value="Problèmes" style="text;html=1;strokeColor=none;fillColor=none;align=center;verticalAlign=middle;whiteSpace=wrap;rounded=0;labelBackgroundColor=#ffffff;fontColor=#000000;fontSize=20;fontStyle=2" vertex="1" parent="1">
          <mxGeometry x="825" y="559" width="130" height="30" as="geometry"/>
        </mxCell>
        <mxCell id="k94eyKAQCkePa_4UFT7v-37" value="" style="shape=image;html=1;verticalAlign=top;verticalLabelPosition=bottom;labelBackgroundColor=#ffffff;imageAspect=0;aspect=fixed;image=https://cdn1.iconfinder.com/data/icons/free-98-icons/32/happy-128.png;strokeWidth=5;fillColor=#ffffff;fontSize=20;fontColor=#000000;" vertex="1" parent="1">
          <mxGeometry x="950" y="194" width="78" height="78" as="geometry"/>
        </mxCell>
        <mxCell id="k94eyKAQCkePa_4UFT7v-38" value="Bénéfices" style="text;html=1;strokeColor=none;fillColor=none;align=center;verticalAlign=middle;whiteSpace=wrap;rounded=0;labelBackgroundColor=#ffffff;fontColor=#000000;fontSize=20;fontStyle=2" vertex="1" parent="1">
          <mxGeometry x="840" y="190" width="130" height="30" as="geometry"/>
        </mxCell>
      </root>
    </mxGraphModel>
  </diagram>
</mxfile>
